# xmcd
#
# Track frame offsets:
#	150
#	15527
#	33013
#	49113
#	66629
#	83677
#	100710
#	114071
#	142018
#
# Disc length: 2386 seconds
#
# Revision: 1
# Processed by: cddbd v1.5.2PL0 Copyright (c) Steve Scherf et al.
# Submitted via: audiograbber 1.83.01
#
DISCID=69095009
DTITLE=Various Artist - 60476
DYEAR=2012
DGENRE=Country
TTITLE0=Eric Church - Drink In My Hand
TTITLE1=Alan Jackson - Long Way To Go
TTITLE2=Montgomery Gentry - Where I Come From
TTITLE3=Lady Antebellum - Just A Kiss
TTITLE4=Zac Brown Band - Keep Me In Mind
TTITLE5=Luke Bryan - Drunk On You
TTITLE6=Chris Young - You
TTITLE7=Steel Magnolia - Without You
TTITLE8=Data - Data Track
EXTD=Initial Submit
EXTT0=
EXTT1=
EXTT2=
EXTT3=
EXTT4=
EXTT5=
EXTT6=
EXTT7=
EXTT8=
PLAYORDER=
